<?xml version="1.0" encoding="UTF-8" standalone="no"?>
            <svg width="200" height="200" viewBox="0 0 200 200" xmlns="http://www.w3.org/2000/svg">
                <defs>
                  <pattern id="Pattern_spized_pattern_1_2" x="0" y="0" width="893.98517" height="888.32703" patternTransform="scale(0.2237173576380467)" patternUnits="userSpaceOnUse">
                    <svg xmlns:svg="http://www.w3.org/2000/svg" xmlns="http://www.w3.org/2000/svg" version="1.1" id="svg_patternundefined" xml:space="preserve" width="893.98517" height="888.32703" viewBox="0 0 893.98517 888.32703">
  
      <path id="" d="M 5.0040906,6.7871742e-4 5.0440906,231.34401 68.509156,169.85641 67.295556,1.2050768e-5 H 77.301422 L 78.436089,171.92841 v 2.0716 l -1.465334,1.4656 -73.3919977,71.4932 -3.57813327714,3.57813 V 6.7871742e-4 H 5.0047572 Z m 113.5593294,0 32.4548,31.55413228258 1.54347,1.4816 v 2.114534 96.354535 l 67.49253,67.79906 V 6.7871742e-4 h 10.0056 V 209.39774 l 63.39666,64.2388 V 91.186676 l 1.4464,-3.497999 85.28467,-87.68799828258 h 14.14946 L 303.46235,93.21241 V 285.7688 l -8.54013,3.5172 -150.90067,-152.22386 -1.46573,-3.5176 V 37.265611 L 104.36369,6.7871742e-4 Z M 220.05422,888.32372 V 682.59799 l -76.13627,-76.13626 -1.46533,-1.46533 v -2.072 -121.8364 -12.0204 l 8.52013,8.4828 140.3112,139.68826 V 503.6824 L 149.69009,362.0884 78.499289,433.2788 v 195.7248 l 67.766931,66.47426 1.50453,1.4756 v 2.08133 113.8368 12.07747 L 139.23062,816.40879 5.0028906,682.18119 V 888.32372 H -4.2643788e-5 V 380.60894 L 146.23062,240.18587 l 3.60267,-3.45946 3.45293,3.59626 140.0036,145.8028 77.00253,-77.00253 v -182.8044 -2.072 l 1.46573,-1.46533 71.70067,-71.701066 3.53346,-3.533466 V 359.306 L 301.28995,505.00867 V 629.25826 641.278 l -8.52067,-8.482 -140.31106,-139.6884 v 107.74493 l 76.13626,76.13627 1.46534,1.46533 v 2.072 207.79759 z m -152.759331,0 v -51.34826 l 51.268531,51.34826 H 104.36369 L 77.300755,861.26079 v 27.06293 z m 239.287061,-17.84613 -8.54013,8.54027 v -12.07787 -114.71893 -2.07267 l 1.4656,-1.46493 67.36639,-67.36626 v -141.76827 -2.07146 l 1.46534,-1.46574 78.65306,-78.378 v 271.702 z m 1.46573,-15.61507 134.03373,-134.03386 -0.0227,-244.38613 -65.1784,65.1784 v 141.76813 2.072 l -1.46574,1.46533 -67.36626,67.36627 V 854.86252 Z M 137.76529,800.79373 v -99.67827 l -67.766934,-66.47466 -1.504667,-1.476 v -2.08054 -199.87733 -2.072 l 1.465333,-1.46533 74.707998,-74.708 V 255.52321 L 5.0028906,389.6408 V 668.03133 Z M 289.63048,396.72294 154.67302,256.17547 V 352.9216 L 296.94982,495.1988 441.99341,350.15534 V 66.695344 l -61.6952,61.695066 v 182.80439 2.072 l -1.4656,1.46534 -82.06866,82.06893 -3.6008,3.6008 z m 90.55707,491.60078 66.80466,-66.80386 v 14.14866 l -52.6552,52.6552 z M 888.97994,0.00401205 888.94127,231.34734 825.4766,169.85974 826.6902,0.00334538 H 816.68434 L 815.54967,171.93174 v 2.0716 l 1.46533,1.4656 73.392,71.4932 3.57814,3.57813 V 0.00401205 h -5.00454 z m -113.55894,0 -32.45479,31.55413295 -1.54347,1.4816 v 2.114533 96.354532 l -67.49253,67.79906 V 0.00401205 h -10.0056 V 209.40107 l -63.39707,64.2388 V 91.19001 l -1.446,-3.498 L 513.79688,0.00401205 H 499.64741 L 590.52208,93.215743 V 285.77214 l 8.54013,3.5172 150.90066,-152.22386 1.46574,-3.5176 V 37.268944 L 789.62074,0.00401205 Z M 673.93021,888.32706 V 682.60133 l 76.13626,-76.13627 1.46534,-1.46533 v -2.072 -121.8364 -12.0204 l -8.52027,8.4828 L 602.70048,617.242 V 503.68573 l 141.59386,-141.59399 71.1904,71.19039 v 195.7248 l -67.76653,66.47426 -1.50454,1.4756 v 2.08134 113.8368 12.07746 l 8.54014,-8.54027 134.22773,-134.22759 v 206.14253 h 5.00293 V 380.61227 l -146.23066,-140.42306 -3.60307,-3.45947 -3.45253,3.59627 -140.0036,145.80279 -77.00253,-77.00253 v -182.80439 -2.072 l -1.46574,-1.46534 -71.70066,-71.701063 -3.53347,-3.533466 V 359.30934 L 592.69448,505.012 v 124.2496 12.01973 l 8.52026,-8.482 140.31147,-139.6884 v 107.74493 l -76.13627,76.13627 -1.46533,1.46533 v 2.072 207.7976 z m 152.75933,0 V 836.97879 L 775.421,888.32706 h 14.19974 l 27.06293,-27.06294 v 27.06294 z m -239.28746,-17.84614 8.54013,8.54027 v -12.07787 -114.71893 -2.07266 l -1.46533,-1.46494 -67.36627,-67.36626 V 539.55227 537.4808 l -1.46573,-1.46573 -78.65267,-78.378 v 271.70199 z m -1.46534,-15.61506 -134.03386,-134.03387 0.024,-244.38612 65.1784,65.1784 v 141.76812 2.072 l 1.4656,1.46534 67.3664,67.36626 v 100.56987 z m 170.2824,-54.0688 v -99.67827 l 67.76653,-66.47466 1.50507,-1.476 v -2.08053 -199.87733 -2.072 l -1.46574,-1.46534 -74.70759,-74.70799 v -97.4384 l 139.66413,134.1176 V 668.03466 Z M 604.35394,396.72627 739.31141,256.17881 v 96.74613 L 597.03448,495.20213 451.99101,350.15867 V 66.698677 l 61.69507,61.695063 v 182.8044 2.072 l 1.46573,1.46533 82.06867,82.06893 3.6008,3.6008 z m -90.55706,491.60079 -66.80467,-66.80387 v 14.14867 l 52.6552,52.6552 z" stroke="none" fill="black" stroke-width="0"/></svg>
                  </pattern>
                </defs>
              <rect width="200" height="200" fill="url(#Pattern_spized_pattern_1_2)" />
            </svg>