<?xml version="1.0" encoding="UTF-8" standalone="no"?>
            <svg width="200" height="200" viewBox="0 0 200 200" xmlns="http://www.w3.org/2000/svg">
                <defs>
                  <pattern id="Pattern_spized_pattern_1_2" x="0" y="0" width="400.00052" height="719.13934" patternTransform="scale(0.2781102199192719)" patternUnits="userSpaceOnUse">
                    <svg xmlns:svg="http://www.w3.org/2000/svg" xmlns="http://www.w3.org/2000/svg" version="1.1" id="svg_patternspized_patterns_56" xml:space="preserve" width="400.00052" height="719.13934" viewBox="0 0 400.00052 719.13934">
  
      <path id="path9" d="m 199.99961,199.29554 44.794,-77.58621 v -0.0166 l 44.78274,-77.56541 h -89.57674 -89.57724 l 44.7828,77.56523 v 0.0166 z M 20.540788,0 H 379.45826 l -1.23356,2.13616 -87.2686,151.15374 -0.008,-0.004 -87.26086,151.14122 -3.68811,6.38829 -3.6886,-6.38829 -87.26124,-151.14122 -0.008,0.004 L 21.770426,2.13616 Z M 399.99959,48.77137 v 17.01601 -9.3e-4 l -83.57951,144.7656 v 0.0166 L 232.85016,355.3129 H 399.9991 v 0 8.54493 0 H 232.85016 l 83.56905,144.74495 v 0.0151 L 399.9991,653.383 v 0 17.01615 l -3.68864,-6.3879 -87.26161,-151.14161 -0.008,0.004 -86.03566,-149.01741 -2.46645,-4.27247 2.46645,-4.2725 86.03566,-149.01676 0.008,0.004 87.26116,-151.14156 3.68826,-6.38857 z m 0,94.50382 v 17.01596 -9.3e-4 l -44.79395,77.58637 v 0.0151 l -44.78277,77.56579 h 89.57672 v 0 8.54485 0 h -96.96496 -7.38843 l 3.69979,-6.40877 48.48291,-83.97432 0.008,0.004 48.47536,-83.9623 3.68826,-6.38865 z m 0,251.89275 v 8.54474 0 h -89.57706 l 44.78277,77.56571 v 0.0151 l 44.79429,77.58628 v 0 17.01615 l -3.68868,-6.38794 -48.47574,-83.96232 -0.008,0.004 -48.4829,-83.97418 -3.69975,-6.40877 h 7.38839 96.96529 z M 379.4583,719.13937 H 20.540788 l 1.233205,-2.13616 87.268817,-151.15339 0.008,0.004 87.26102,-151.14175 3.6883,-6.38848 3.68811,6.38848 87.26139,151.14175 0.008,-0.004 87.2686,151.15339 z M 0,670.40082 v -17.01563 l 83.57983,-144.7651 v -0.0151 L 167.14886,363.85816 H 0 v -8.54493 H 167.14886 L 83.57983,210.5684 v -0.0166 L 0,65.78633 V 48.77041 l 3.6880825,6.38856 87.2613925,151.14106 0.0083,-0.004 86.035625,149.01729 2.46679,4.27246 -2.46679,4.27247 -86.035625,149.01741 -0.0083,-0.004 -87.2613925,151.14147 z m 0,-94.50394 v -17.01562 l 44.794274,-77.58631 v -0.0151 L 89.57705,403.71453 H 0 v -8.54474 h 96.96548 7.38843 l -3.70016,6.40877 -48.482752,83.97419 -0.0083,-0.004 -48.4757985,83.96237 z M 0,324.00386 v -8.54511 H 89.57705 L 44.794274,237.89348 v -0.0151 L 0,160.2903 v -17.016 l 3.6880825,6.38861 48.4757725,83.9623 0.0083,-0.004 48.482715,83.97404 3.70015,6.40873 h -7.38841 z m 283.57913,246.1016 -83.5799,-144.76544 -83.58001,144.76544 v 0.0151 L 32.850543,714.86524 H 199.99923 367.14818 L 283.57913,570.12058 Z m -79.89176,-60.88904 48.47584,83.96232 0.008,-0.004 48.48275,83.97433 3.70013,6.40896 h -7.38843 -96.9655 -96.96547 -7.388101 l 3.699996,-6.40896 48.482755,-83.97433 0.008,0.004 48.47527,-83.96232 3.6883,-6.38859 z m 41.10624,88.21361 -44.79438,-77.58623 -44.79406,77.58623 v 0.0151 l -44.7828,77.56591 h 89.57686 89.57712 l -44.78274,-77.56583 z m -44.794,-303.63048 83.57952,-144.76546 v -0.0166 L 367.14818,4.27235 H 199.99961 32.850543 l 83.568677,144.74496 v 0.0166 z m 52.1636,-167.83861 -48.47534,83.96216 -3.68808,6.38828 -3.6886,-6.38828 -48.47549,-83.96216 -0.008,0.004 L 99.344949,41.9906 95.644954,35.58215 h 7.388096 96.96582 96.96513 7.38842 l -3.70013,6.40845 -48.48275,83.97434 z" stroke="none" fill="black" stroke-width="0"/></svg>
                  </pattern>
                </defs>
              <rect width="200" height="200" fill="url(#Pattern_spized_pattern_1_2)" />
            </svg>